<?xml version="1.0" standalone="no"?>
<!DOCTYPE svg PUBLIC "-//W3C//DTD SVG 20010904//EN"
 "http://www.w3.org/TR/2001/REC-SVG-20010904/DTD/svg10.dtd">
<svg version="1.0" xmlns="http://www.w3.org/2000/svg"
 width="700.000000pt" height="700.000000pt" viewBox="0 0 700.000000 700.000000"
 preserveAspectRatio="xMidYMid meet">
<metadata>
Created by potrace 1.11, written by Peter Selinger 2001-2013
</metadata>
<g transform="translate(0.000000,700.000000) scale(0.100000,-0.100000)"
fill="#000000" stroke="none">
<path d="M3290 6994 c-19 -2 -87 -9 -150 -15 -647 -61 -1294 -326 -1825 -746
-141 -111 -437 -407 -548 -548 -413 -521 -662 -1120 -744 -1785 -24 -200 -24
-600 0 -800 82 -665 331 -1264 744 -1785 111 -141 407 -437 548 -548 521 -413
1120 -662 1785 -744 200 -24 600 -24 800 0 665 82 1264 331 1785 744 141 111
437 407 548 548 413 521 662 1120 744 1785 24 200 24 600 0 800 -82 665 -331
1264 -744 1785 -111 141 -407 437 -548 548 -518 410 -1123 663 -1775 742 -126
15 -542 28 -620 19z m1539 -1658 c93 -77 276 -266 353 -366 263 -342 423 -722
484 -1155 23 -163 23 -469 0 -630 -61 -430 -213 -798 -473 -1146 -96 -131
-304 -345 -341 -352 -23 -5 -35 3 -84 55 -32 34 -58 70 -58 80 0 11 46 65 106
126 391 394 604 855 646 1404 20 257 -11 525 -91 794 -112 377 -361 756 -661
1010 -53 45 -80 74 -80 88 0 12 18 49 40 84 51 81 69 82 159 8z m-1457 -423
c17 -15 18 -72 18 -1413 0 -1396 0 -1397 -21 -1415 -16 -15 -25 -17 -47 -9
-15 6 -297 179 -627 385 l-600 374 -310 5 c-277 5 -314 7 -345 24 -49 26 -79
55 -103 101 -22 39 -22 47 -22 535 0 488 0 496 22 535 24 46 54 75 103 101 31
17 68 19 345 24 l310 5 595 371 c327 204 604 376 615 382 28 16 45 15 67 -5z
m1117 -158 c176 -169 314 -368 404 -582 88 -208 125 -381 134 -618 16 -462
-148 -899 -465 -1236 -117 -124 -177 -172 -205 -165 -26 6 -107 111 -107 139
0 11 42 61 98 116 249 246 397 535 446 872 38 256 4 548 -91 781 -78 193 -173
336 -333 501 -130 135 -138 151 -98 203 44 59 72 84 95 84 15 0 55 -32 122
-95z m-542 -398 c46 -26 157 -133 208 -201 101 -134 176 -310 204 -477 15 -92
14 -283 -3 -371 -43 -225 -148 -421 -316 -590 -83 -83 -113 -101 -145 -86 -26
13 -105 108 -105 126 0 8 39 53 86 100 168 169 252 339 272 553 28 281 -76
552 -281 732 -36 32 -69 67 -72 78 -8 23 31 86 78 125 32 27 43 29 74 11z"/>
</g>
</svg>
